<svg width="24" height="24" viewBox="0 0 24 24" fill="none" xmlns="http://www.w3.org/2000/svg">
<rect width="24" height="24" rx="4" fill="url(#paint0_linear)"/>
<path d="M22.2837 5.16092C22.09 3.3447 20.6555 1.91006 18.8391 1.71616C14.2842 1.23019 9.71573 1.23019 5.1608 1.71616C3.34457 1.91006 1.90994 3.3447 1.71603 5.16092C1.23007 9.71585 1.23007 14.2843 1.71603 18.8391C1.90994 20.6555 3.34457 22.0901 5.1608 22.2838C9.71573 22.77 14.2842 22.77 18.839 22.2838C20.6554 22.0901 22.09 20.6555 22.2837 18.8391C22.7699 14.2843 22.7699 9.71585 22.2837 5.16092Z" fill="url(#paint1_linear)"/>
<path d="M4.45728 9.0892C4.50726 8.73618 4.54535 8.38113 4.60889 8.03067C4.96906 6.04562 6.37439 4.69504 8.38379 4.62582C10.8032 4.54269 13.2299 4.5383 15.6489 4.62546C17.8359 4.70419 19.4197 6.32358 19.488 8.51132C19.5607 10.8344 19.5607 13.1631 19.488 15.4862C19.4197 17.6739 17.8364 19.2931 15.6491 19.372C13.23 19.4594 10.8028 19.4616 8.38397 19.3708C6.19659 19.2885 4.68451 17.6655 4.53821 15.4745C4.52557 15.2849 4.48492 15.0971 4.45728 14.9085C4.45728 12.9687 4.45728 11.0288 4.45728 9.0892ZM12.002 18.0755C13.109 18.0755 14.2172 18.1086 15.3228 18.0678C17.0562 18.0035 18.1224 16.969 18.1629 15.2372C18.2131 13.0793 18.2131 10.9184 18.1629 8.76034C18.1224 7.0289 17.0555 5.97018 15.3228 5.93338C13.1235 5.88687 10.9218 5.88724 8.72254 5.93338C7.00299 5.96945 5.93366 7.00674 5.88696 8.71915C5.82764 10.9043 5.82764 13.0934 5.88696 15.2785C5.93366 16.9908 7.00299 18.0041 8.72272 18.0678C9.81439 18.1084 10.9088 18.0755 12.002 18.0755Z" fill="url(#paint2_linear)"/>
<path d="M4.45728 9.0892C4.50726 8.73618 4.54535 8.38113 4.60889 8.03067C4.96906 6.04562 6.37439 4.69504 8.38379 4.62582C10.8032 4.54269 13.2299 4.5383 15.6489 4.62546C17.8359 4.70419 19.4197 6.32358 19.488 8.51132C19.5607 10.8344 19.5607 13.1631 19.488 15.4862C19.4197 17.6739 17.8364 19.2931 15.6491 19.372C13.23 19.4594 10.8028 19.4616 8.38397 19.3708C6.19659 19.2885 4.68451 17.6655 4.53821 15.4745C4.52557 15.2849 4.48492 15.0971 4.45728 14.9085C4.45728 12.9687 4.45728 11.0288 4.45728 9.0892ZM12.002 18.0755C13.109 18.0755 14.2172 18.1086 15.3228 18.0678C17.0562 18.0035 18.1224 16.969 18.1629 15.2372C18.2131 13.0793 18.2131 10.9184 18.1629 8.76034C18.1224 7.0289 17.0555 5.97018 15.3228 5.93338C13.1235 5.88687 10.9218 5.88724 8.72254 5.93338C7.00299 5.96945 5.93366 7.00674 5.88696 8.71915C5.82764 10.9043 5.82764 13.0934 5.88696 15.2785C5.93366 16.9908 7.00299 18.0041 8.72272 18.0678C9.81439 18.1084 10.9088 18.0755 12.002 18.0755Z" fill="white"/>
<path d="M11.9999 8.15613C9.87695 8.15613 8.15576 9.87714 8.15576 12.0001C8.15576 14.1232 9.87695 15.8442 11.9999 15.8442C14.123 15.8442 15.844 14.1232 15.844 12.0001C15.844 9.87714 14.123 8.15613 11.9999 8.15613ZM11.9999 14.5207C10.6077 14.5207 9.47925 13.3922 9.47925 12.0001C9.47925 10.6079 10.6077 9.47943 11.9999 9.47943C13.392 9.47943 14.5205 10.6079 14.5205 12.0001C14.5205 13.3922 13.392 14.5207 11.9999 14.5207Z" fill="white"/>
<path d="M16.9831 7.98065C16.9831 8.48566 16.5737 8.89508 16.0687 8.89508C15.5637 8.89508 15.1541 8.48566 15.1541 7.98065C15.1541 7.47546 15.5637 7.06604 16.0687 7.06604C16.5737 7.06604 16.9831 7.47546 16.9831 7.98065Z" fill="white"/>
<defs>
<linearGradient id="paint0_linear" x1="-21.5479" y1="20.9741" x2="31.3876" y2="20.9741" gradientUnits="userSpaceOnUse">
<stop offset="0.4922" stop-color="#FF1C74"/>
<stop offset="1" stop-color="#6C1CD1"/>
</linearGradient>
<linearGradient id="paint1_linear" x1="9.20494" y1="10.4279" x2="-31.4539" y2="-12.4427" gradientUnits="userSpaceOnUse">
<stop stop-color="#A1B5D8" stop-opacity="0"/>
<stop offset="0.3094" stop-color="#90A2BD" stop-opacity="0.309804"/>
<stop offset="0.7554" stop-color="#7C8B9C" stop-opacity="0.756863"/>
<stop offset="1" stop-color="#748290"/>
</linearGradient>
<linearGradient id="paint2_linear" x1="16.7652" y1="7.26798" x2="7.05662" y2="16.9765" gradientUnits="userSpaceOnUse">
<stop stop-color="#833AB4"/>
<stop offset="0.0922" stop-color="#9C3495"/>
<stop offset="0.2927" stop-color="#DC2546"/>
<stop offset="0.392" stop-color="#FD1D1D"/>
<stop offset="0.5589" stop-color="#FC6831"/>
<stop offset="0.6887" stop-color="#FC9B40"/>
<stop offset="0.7521" stop-color="#FCAF45"/>
<stop offset="0.7806" stop-color="#FDB750"/>
<stop offset="0.8656" stop-color="#FECB6A"/>
<stop offset="0.9415" stop-color="#FFD87A"/>
<stop offset="1" stop-color="#FFDC80"/>
</linearGradient>
</defs>
</svg>
