<?xml version="1.0" encoding="utf-8"?><svg xmlns="http://www.w3.org/2000/svg" xmlns:xlink="http://www.w3.org/1999/xlink"><symbol viewBox="0 0 50.1 32.5" id="about-icon-1"><path d="M50.1 16.4L41.3 4.7v-.1h-8.7V0H0V27.8H3.7c.2 2.6 2.4 4.7 5.2 4.7s4.9-2.1 5.2-4.7h20.5c.2 2.6 2.4 4.7 5.2 4.7 2.7 0 4.9-2.1 5.2-4.7h5l.1-11.4zM32.5 7h9.3l5.1 6.8H32.5V7zM8.9 31.5c-2.3 0-4.2-1.9-4.2-4.2 0-2.3 1.9-4.2 4.2-4.2s4.2 1.9 4.2 4.2c0 2.3-1.9 4.2-4.2 4.2zm30.8 0c-2.3 0-4.2-1.9-4.2-4.2 0-2.3 1.9-4.2 4.2-4.2 2.3 0 4.2 1.9 4.2 4.2 0 2.3-1.9 4.2-4.2 4.2zm5.1-4.7c-.2-2.6-2.4-4.7-5.2-4.7-2.7 0-4.9 2.1-5.2 4.7H14c-.2-2.6-2.4-4.7-5.2-4.7s-4.9 2.1-5.2 4.7H.9V.9h30.7v13.6h16l1.5 2v10.2h-4.3z"/><path d="M8.2 11.9l-1.1-1.8H5.8v4.6H7v-2.6l1.2 1.7 1.1-1.7v2.6h1.3v-4.6H9.3zM13.9 11.2h2.2l-2.3 2.5v1h4v-1.1h-2.2l2.2-2.5v-1h-3.9zM21.1 13.8h.3v.9h.3v-.9h.3v-.2h-.9zM23 14.2h.5V14H23v-.2h.6v-.2h-.9v1.1h.9v-.3H23zM24.9 14.4h-.1c-.1 0-.1 0-.2-.1 0-.1-.1-.1-.1-.2s0-.1.1-.2c0-.1.1-.1.2-.1s.2 0 .2.1l.2-.2c-.1-.1-.3-.2-.4-.2h-.2c-.1 0-.1.1-.2.1 0 0-.1.1-.1.2v.2c0 .1 0 .2.1.3l.2.2c.1 0 .2.1.3.1h.2c.1 0 .1 0 .2-.1l.1-.1-.4-.1s-.1 0-.1.1zM26.6 14h-.4v-.4h-.3v1.1h.3v-.5h.4v.5h.3v-1.1h-.3zM21.1 10.1h5.8v1.1h-5.8z"/></symbol><symbol viewBox="0 0 50 50" id="about-icon-2"><path d="M24.9.038c-.1 0-.2.1-.2.1-6.2 4.8-12.8 8.2-19.7 10.7-.2.1-.4.3-.4.5 0 12.8 2.6 20.9 6.5 26.6 3.9 5.7 8.9 8.9 13.6 11.9.2.1.4.1.6 0 4.7-3 9.8-6.2 13.6-11.9 3.9-5.7 6.5-13.8 6.5-26.6 0-.2-.1-.5-.4-.5-6.9-2.5-13.5-5.9-19.7-10.7-.1-.1-.2-.2-.4-.1zm.1 1.2c6.1 4.6 12.6 8 19.3 10.5-.1 12.4-2.6 20.2-6.3 25.6-3.6 5.4-8.4 8.5-13 11.4-4.6-2.9-9.3-6-13-11.4-3.7-5.4-6.2-13.2-6.3-25.6 6.7-2.5 13.2-5.9 19.3-10.5z"/><path d="M40.9 14.538c0 10.2-2.2 16.6-5.2 21.1-3 4.4-6.9 7-10.7 9.4-3.8-2.4-7.7-5-10.7-9.4-3-4.5-5.1-10.9-5.2-21.1l-1-.3c0 10.5 2.2 17.2 5.4 21.9 3.2 4.7 7.4 7.4 11.2 9.8.2.1.3.1.5 0 3.9-2.5 8-5.1 11.2-9.8 3.2-4.7 5.4-11.4 5.4-21.9l-.9.3z"/></symbol><symbol viewBox="0 0 50 50" id="about-icon-3"><path d="M25 10.8c-3.9 0-7 3.2-7 7s3.2 7 7 7c3.9-.1 7-3.2 7-7.1s-3.1-6.9-7-6.9zm0 12.9c-3.3 0-5.9-2.7-5.9-5.9s2.7-5.9 5.9-5.9 5.9 2.7 5.9 5.9-2.6 5.9-5.9 5.9z"/><path d="M25 0C15.3 0 7.4 7.9 7.4 17.6c0 3 .7 5.8 2 8.2.5.9 1.1 1.8 1.7 2.6L25 49.8l13.9-21.3c.7-.8 1.2-1.7 1.7-2.6 1.3-2.5 2-5.3 2-8.2C42.6 7.9 34.8 0 25 0zm14.6 25.4c-.4.8-1 1.7-1.6 2.4l-.1.1L25 47.7 12.1 27.9l-.1-.1c-.6-.8-1.2-1.6-1.6-2.4-1.3-2.4-1.9-5-1.9-7.7C8.5 8.6 15.9 1.2 25 1.2s16.5 7.4 16.5 16.5c0 2.7-.6 5.2-1.9 7.7z"/></symbol><symbol viewBox="0 0 50 50" id="build-icon-1"><style>.dst0{fill:#231f20}</style><g id="dLayer_1"><path class="dst0" d="M11.9 0v9.8l1-1V1h32.5v7.8l1 1V0z"/><path class="dst0" d="M.1 8.8v39.4h1V9.8h48v37.4h-7v1h8V8.8z"/><circle class="dst0" cx="41.6" cy="4.9" r="1.9"/><circle class="dst0" cx="35.6" cy="4.9" r="1.9"/><circle class="dst0" cx="29.6" cy="4.9" r="1.9"/><path class="dst0" d="M15.4 4.4h9.2v.9h-9.2zM.6 16.8h41.5v30.9l1-.1V15.8H.4z"/></g><g id="dLayer_2"><path class="dst0" d="M24.7 44.7H6.5c-1.4 0-2.6-1.2-2.6-2.6v-5c0-1.4 1.2-2.6 2.6-2.6h18.3c1.4 0 2.6 1.2 2.6 2.6v5c-.1 1.5-1.2 2.6-2.7 2.6zM6.5 35.4c-.9 0-1.7.8-1.7 1.7v5c0 .9.8 1.7 1.7 1.7h18.3c.9 0 1.7-.8 1.7-1.7v-5c0-.9-.8-1.7-1.7-1.7H6.5z"/><path class="dst0" d="M10.2 27.6c-1.6 0-3 1.1-3.2 2.7l-1 5.1 1-.9.7-3.6c.3-1.4 1.6-2.4 3-2.4h9.7c1.4 0 2.7 1 3 2.4l.7 3.6 1 .9-.9-5.1c-.3-1.6-1.6-2.7-3.2-2.7H10.2zM23.5 38.3h-2.2c-.7 0-1.2.6-1.2 1.2v.6c0 .7.6 1.2 1.2 1.2h2.2c.7 0 1.2-.6 1.2-1.2v-.6c0-.6-.5-1.2-1.2-1.2zM10 38.3H7.8c-.7 0-1.2.6-1.2 1.2v.6c0 .7.6 1.2 1.2 1.2H10c.7 0 1.2-.6 1.2-1.2v-.6c0-.6-.5-1.2-1.2-1.2zM6.6 44.4v2.1c0 .9.7 1.6 1.6 1.6h2.1c.9 0 1.6-.7 1.6-1.6v-2.1H6.6zM19.4 44.4v2.1c0 .9.7 1.6 1.6 1.6h2.1c.9 0 1.6-.7 1.6-1.6v-2.1h-5.3zM37 44.7h-5c-1.4 0-2.6-1.2-2.6-2.6l1-5c0-1.4 1.2-2.6 2.6-2.6h2.9c1.4 0 2.6 1.2 2.6 2.6l1 5c.1 1.5-1.1 2.6-2.5 2.6zm-4-9.3c-.9 0-1.7.8-1.7 1.7l-1 5c0 .9.8 1.7 1.7 1.7h5c.9 0 1.7-.8 1.7-1.7l-1-5c0-.9-.8-1.7-1.7-1.7h-3z"/><path class="dst0" d="M31.8 44.4v2.1c0 .9.7 1.6 1.6 1.6h2.1c.9 0 1.6-.7 1.6-1.6v-2.1h-5.3zM34 33.1h1v2.1h-1z"/><path class="dst0" d="M30.7 32.9v-1.2l3.8 1.2 3.8-1.2v1.2l-3.8 3z"/><circle class="dst0" cx="34.5" cy="38.3" r="1.9"/><path class="dst0" d="M32.6 42.4v-.6l1.9.6 1.9-.6v.6l-1.9.5z"/><path class="dst0" d="M33 41.4v-.5l1.5.5 1.5-.5v.5l-1.5.5z"/></g><g id="dLayer_3"><path class="dst0" d="M.7 18.8h42.2v1H.7zM.7 21.8h42.2v1H.7z"/></g></symbol><symbol id="build-icon-2" viewBox="0 0 50 50"><style>.est0{fill:#231f20}</style><path class="est0" d="M20 38.2c0-.5-.4-.9-.9-.9h-1.6c-.5 0-.9.4-.9.9v.5c0 .5.4.9.9.9h1.6c.5 0 .9-.4.9-.9v-.5zM9 37.3H7.3c-.5 0-.9.4-.9.9v.5c0 .5.4.9.9.9H9c.5 0 .9-.4.9-.9v-.5c0-.5-.4-.9-.9-.9z"/><path class="est0" d="M17.2 44.6h1.6c.7 0 1.2-.6 1.2-1.2V42c1.1 0 1.9-.9 1.9-1.9v-3.8c0-1-.8-1.8-1.7-1.9l-.6-3.2c-.2-1.2-1.2-2-2.4-2H9.1c-1.2 0-2.2.9-2.4 2l-.6 3.2c-1 .1-1.7.9-1.7 1.9v3.8c0 1.1.9 1.9 1.9 1.9h.1v1.3c0 .7.6 1.2 1.2 1.2h1.6c.7 0 1.2-.6 1.2-1.2V42H16v1.3c0 .8.6 1.3 1.2 1.3zM7.3 31.7c.2-1 1.2-1.8 2.2-1.8h7.3c1.1 0 2 .7 2.2 1.8l.5 2.7H6.8l.5-2.7zM5 40.1v-3.8c0-.7.6-1.3 1.3-1.3H20c.7 0 1.3.6 1.3 1.3v3.8c0 .7-.6 1.3-1.3 1.3H6.3c-.7 0-1.3-.6-1.3-1.3zM43.8 38.2c0-.5-.4-.9-.9-.9h-1.6c-.5 0-.9.4-.9.9v.5c0 .5.4.9.9.9h1.6c.5 0 .9-.4.9-.9v-.5zM32.7 37.3h-1.6c-.5 0-.9.4-.9.9v.5c0 .5.4.9.9.9h1.6c.5 0 .9-.4.9-.9v-.5c0-.5-.4-.9-.9-.9z"/><path class="est0" d="M41 44.6h1.6c.7 0 1.2-.6 1.2-1.2V42c1.1 0 1.9-.9 1.9-1.9v-3.8c0-1-.8-1.8-1.7-1.9l-.6-3.2c-.2-1.2-1.2-2-2.4-2h-8.1c-1.2 0-2.2.9-2.4 2l-.6 3.2c-1 .1-1.7.9-1.7 1.9v3.8c0 1.1.9 1.9 1.9 1.9h.1v1.3c0 .7.6 1.2 1.2 1.2H33c.7 0 1.2-.6 1.2-1.2V42h5.6v1.3c-.1.8.5 1.3 1.2 1.3zM31 31.7c.2-1 1.2-1.8 2.2-1.8h7.3c1.1 0 2 .7 2.2 1.8l.5 2.7H30.5l.5-2.7zm-2.2 8.4v-3.8c0-.7.6-1.3 1.3-1.3h13.7c.7 0 1.3.6 1.3 1.3v3.8c0 .7-.6 1.3-1.3 1.3H30c-.7 0-1.2-.6-1.2-1.3zM20 14.8c0-.5-.4-.9-.9-.9h-1.6c-.5 0-.9.4-.9.9v.5c0 .5.4.9.9.9h1.6c.5 0 .9-.4.9-.9v-.5zM8.9 13.9H7.3c-.5 0-.9.4-.9.9v.5c0 .5.4.9.9.9h1.6c.5 0 .9-.4.9-.9v-.5c.1-.5-.4-.9-.9-.9z"/><path class="est0" d="M17.2 21.3h1.6c.7 0 1.2-.6 1.2-1.2v-1.4c1.1 0 1.9-.9 1.9-1.9V13c0-1-.8-1.8-1.7-1.9l-.6-3.2c-.2-1.2-1.2-2-2.4-2H9.1c-1.2 0-2.2.9-2.4 2l-.6 3.2c-1 .1-1.7.9-1.7 1.9v3.8c0 1.1.9 1.9 1.9 1.9h.1V20c0 .7.6 1.2 1.2 1.2h1.6c.7 0 1.2-.6 1.2-1.2v-1.3H16V20c0 .7.5 1.3 1.2 1.3zm-9.9-13c.2-1 1.2-1.8 2.2-1.8h7.3c1.1 0 2 .7 2.2 1.8l.5 2.7H6.7l.6-2.7zM5 16.7V13c0-.7.6-1.3 1.3-1.3H20c.7 0 1.3.6 1.3 1.3v3.8c0 .7-.6 1.3-1.3 1.3H6.3C5.6 18 5 17.4 5 16.7zM43.7 14.8c0-.5-.4-.9-.9-.9h-1.6c-.5 0-.9.4-.9.9v.5c0 .5.4.9.9.9h1.6c.5 0 .9-.4.9-.9v-.5zM32.7 13.9H31c-.5 0-.9.4-.9.9v.5c0 .5.4.9.9.9h1.6c.5 0 .9-.4.9-.9v-.5c.1-.5-.3-.9-.8-.9z"/><path class="est0" d="M40.9 21.3h1.6c.7 0 1.2-.6 1.2-1.2v-1.4c1.1 0 1.9-.9 1.9-1.9V13c0-1-.8-1.8-1.7-1.9l-.6-3.2c-.2-1.2-1.2-2-2.4-2h-8.1c-1.2 0-2.2.9-2.4 2l-.6 3.2c-1 .1-1.7.9-1.7 1.9v3.8c0 1.1.9 1.9 1.9 1.9h.1V20c0 .7.6 1.2 1.2 1.2h1.6c.7 0 1.2-.6 1.2-1.2v-1.3h5.6V20c0 .7.6 1.3 1.2 1.3zM31 8.3c.2-1 1.2-1.8 2.2-1.8h7.3c1.1 0 2 .7 2.2 1.8l.5 2.7H30.5l.5-2.7zm-2.3 8.4V13c0-.7.6-1.3 1.3-1.3h13.7c.7 0 1.3.6 1.3 1.3v3.8c0 .7-.6 1.3-1.3 1.3H30c-.7-.1-1.3-.7-1.3-1.4zM0 47v3h50v-3H0zm49 2H1v-1h48v1zM1 0H0v3h50V0H1zm48 2H1V1h48v1zM0 23.9v3h50v-3H0zm49 2H1v-1h48v1z"/></symbol><symbol id="build-icon-3" viewBox="0 0 50 50"><style>.fst0{fill:#231f20}</style><path class="fst0" d="M50.1 20v-.1L44.1 3h-38L.2 19.8H.1c0 2 1.1 3.7 2.8 4.6v22h43.8V24.8c1.9-.7 3.2-2.4 3.4-4.5h.1v-.2l-.1-.1zM7.1 4h36l1.5 4h-39l1.5-4zM5.3 9H45l1.5 4H3.8l1.5-4zm40.3 36.5H3.8V24.9c.5.2 1 .3 1.6.3 2.3 0 4.2-1.5 5-3.5.7 2 2.7 3.5 5 3.5 2.1 0 4-1.3 4.8-3.1.8 1.8 2.7 3.1 4.8 3.1 2.3 0 4.2-1.5 5-3.5.7 2 2.7 3.5 5 3.5 2.2 0 4-1.3 4.9-3.2.8 1.9 2.7 3.2 4.9 3.2.3 0 .6 0 .9-.1v20.4zm-.8-21.3c-2.4 0-4.4-2-4.4-4.4h-.9c0 2.4-2 4.4-4.4 4.4-2.4 0-4.4-2-4.4-4.4H29.6c0 2.4-2 4.4-4.4 4.4-2.3 0-4.2-1.8-4.4-4.1v-.3h-1.1v.3c-.2 2.3-2.1 4.1-4.4 4.1-2.4 0-4.4-2-4.4-4.4H9.8c0 2.4-2 4.4-4.4 4.4C3 24.2 1.1 22.3 1 20h.1l2.3-6.1h43.4l2.3 6.2v.2c-.2 2.2-2 3.9-4.3 3.9z"/><path class="fst0" d="M7.8 41.8h20.8V28.3H7.8v13.5zm1-12.5h18.8v11.5H8.8V29.3zM32.8 28.3v18.2l1-1V29.3h7.8v16.2l1 1V28.3z"/></symbol><symbol id="close" viewBox="0 0 16 16"><style>.gst0{fill:#231f20}</style><path class="gst0" d="M16 1.1L14.9 0 8 7 1.1 0 0 1.1 7 8l-7 6.9L1.1 16 8 9.1l6.9 6.9 1.1-1.1L9.1 8z"/></symbol><symbol viewBox="126 151.2 648 417.6" id="header-top-mail"><path d="M154.8 151.238c-15.6 0-28.8 13.2-28.8 28.8v360c0 15.6 13.2 28.8 28.8 28.8h590.4c15.6 0 28.8-13.2 28.8-28.8v-360c0-15.6-13.2-28.8-28.8-28.8H154.8zm49.3 43.2h491.8l-245.9 216-245.9-216zm-34.9 27l156.4 137-156.4 139.7v-276.7zm561.6 0v276.8l-156.4-139.7 156.4-137.1zm-372.6 165.8l77.6 68.2c8.1 7.1 20.2 7.1 28.4 0l77.6-68.2 155 138.4H203.2l155-138.4z"/></symbol><symbol viewBox="149.6 107.8 610.8 682.4" id="header-top-phone"><path d="M750.5 658.3l-.9-1.1-152.8-89.9c-22.4-12.2-48.2-11-64.9 2.9l-33.7 28.2c-2.1.2-4.2.3-6.2.3-30.4 0-46.1-20.9-72-55.5-8.6-11.5-18.3-24.4-29.8-38-11.1-13.1-21.8-24.7-31.2-35-31.7-34.3-51.1-55.3-43.3-87.4 5.5-4.7 23.3-19.5 34.9-29.2 17.6-15.7 22.6-38.2 14-63.4l-62-166.4-.9-1.1c-8-9.6-19.9-15.1-32.4-15.1-9.8 0-19.3 3.4-26.9 9.6-14.6 10-83.5 58-88.5 82C132.7 301 191 459 295.7 583.7c103.6 123.5 242.2 206.5 344.8 206.5 2.9 0 5.9-.1 8.8-.2 24.3-1.2 83.9-59.8 96.4-72.3 17.5-15 19.7-41.6 4.8-59.4z"/></symbol><symbol viewBox="0 0 460.8 308.4" id="material-icon-1"><path d="M10 67.9c2.7 0 5.2-1 7.1-2.9L50 32.1c7-7 16.2-10.8 26-10.8s19.1 3.8 26 10.8l13.1 13.1c10.1 10.1 23.6 15.7 37.9 15.7 14.3 0 27.8-5.6 37.9-15.7L204 32.1c7-7 16.2-10.8 26-10.8s19.1 3.8 26 10.8l13.1 13.1C279.5 55.4 292.9 61 307.3 61c14.3 0 27.8-5.6 37.9-15.7l13.2-13.2c7-6.9 16.2-10.8 26-10.8s19.1 3.8 26 10.8l33.3 33.3c1.9 1.9 4.4 2.9 7 2.9 5.5 0 10-4.5 10-10 0-2.7-1-5.2-2.9-7.1l-35.6-35.6C412.2 5.6 398.7 0 384.4 0s-27.8 5.6-37.9 15.7l-13.2 13.2c-7 7-16.2 10.8-26 10.8s-19.1-3.8-26-10.8l-13.2-13.2C258 5.6 244.5 0 230.2 0c-14.3 0-27.8 5.6-37.9 15.7l-13.1 13.1c-7 7-16.2 10.8-26 10.8s-19.1-3.8-26-10.8l-13.1-13.1C103.8 5.6 90.3 0 76 0S48.2 5.6 38.1 15.7L2.9 50.9C1 52.7 0 55.3 0 57.9c0 2.7 1 5.2 2.9 7.1 1.9 1.9 4.4 2.9 7.1 2.9zM422.3 135.7c-10.1-10.1-23.6-15.7-37.9-15.7s-27.8 5.6-37.9 15.7l-13.2 13.2c-7 7-16.2 10.8-26 10.8s-19.1-3.8-26-10.8l-13.2-13.2C258 125.6 244.5 120 230.2 120c-14.3 0-27.8 5.6-37.9 15.7l-13.1 13.1c-7 7-16.2 10.8-26 10.8s-19.1-3.8-26-10.8l-13.1-13.1C103.8 125.6 90.3 120 76 120s-27.8 5.6-37.9 15.7L2.9 170.9c-1.9 1.8-2.9 4.4-2.9 7 0 2.7 1 5.2 2.9 7.1 1.9 1.9 4.4 2.9 7.1 2.9s5.2-1 7.1-2.9L50 152.1c7-7 16.2-10.8 26-10.8s19.1 3.8 26 10.8l13.1 13.1c10.1 10.1 23.6 15.7 37.9 15.7 14.3 0 27.8-5.6 37.9-15.7l13.1-13.1c7-7 16.2-10.8 26-10.8s19.1 3.8 26 10.8l13.1 13.1c10.1 10.1 23.6 15.7 37.9 15.7 14.3 0 27.8-5.6 37.9-15.7l13.2-13.2c7-6.9 16.2-10.8 26-10.8s19.1 3.8 26 10.8l33.3 33.3c1.9 1.9 4.4 2.9 7 2.9 5.5 0 10-4.5 10-10 0-2.7-1-5.2-2.9-7.1l-35.2-35.4zM422.3 255.7c-10.1-10.1-23.6-15.7-37.9-15.7s-27.8 5.6-37.9 15.7l-13.2 13.2c-7 7-16.2 10.8-26 10.8s-19.1-3.8-26-10.8l-13.2-13.2C258 245.6 244.5 240 230.2 240c-14.3 0-27.8 5.6-37.9 15.7l-13.1 13.1c-7 7-16.2 10.8-26 10.8s-19.1-3.8-26-10.8l-13.1-13.1C103.8 245.6 90.3 240 76 240s-27.8 5.6-37.9 15.7L2.9 290.9c-1.9 1.8-2.9 4.4-2.9 7 0 2.7 1 5.2 2.9 7.1 1.9 1.9 4.4 2.9 7.1 2.9s5.2-1 7.1-2.9L50 272.1c7-7 16.2-10.8 26-10.8s19.1 3.8 26 10.8l13.1 13.1c10.1 10.1 23.6 15.7 37.9 15.7 14.3 0 27.8-5.6 37.9-15.7l13.1-13.1c7-7 16.2-10.8 26-10.8s19.1 3.8 26 10.8l13.1 13.1c10.1 10.1 23.6 15.7 37.9 15.7 14.3 0 27.8-5.6 37.9-15.7l13.2-13.2c7-6.9 16.2-10.8 26-10.8s19.1 3.8 26 10.8l33.3 33.3c1.9 1.9 4.4 2.9 7 2.9 5.5 0 10-4.5 10-10 0-2.7-1-5.2-2.9-7.1l-35.2-35.4z"/></symbol><symbol viewBox="0 0 517 467.1" id="material-icon-2"><path class="kst0" d="M90.6 78l-30.1-.3C40.3 77.5 30.3 53 44.6 38.8L74.1 7.1c1.5-1.6 1.5-4 .1-5.7-1.6-1.9-4.5-1.9-6.2-.2L6.7 62.5c-8.9 8.9-8.9 23.3 0 32.2l47.1 47.1c7.7 7.7 7.7 20.1 0 27.8L6.7 216.8c-8.9 8.9-8.9 23.3 0 32.2l47 47.1c7.7 7.7 7.7 20.1 0 27.8L6.7 371c-8.9 8.9-8.9 23.3 0 32.2l61 61c3.9 3.9 10.2 3.9 14.1 0l28.8-28.8c18-18 5.4-48.7-20-49l-30-.3c-20.2-.2-30.1-24.6-15.9-38.9L81.8 310l28.8-28.8c18-18 5.4-48.7-20-49l-30.1-.3c-20.2-.2-30.1-24.6-15.9-38.9l37.1-37.1 28.8-28.8c18-18.1 5.5-48.8-19.9-49.1zM289.6 78l-30.1-.3c-20.2-.2-30.1-24.6-15.9-38.9l30.2-28.9c1.7-1.6 1.7-4.4.1-6.1l-1.7-1.7c-1.7-1.7-4.3-1.7-6 0l-60.4 60.4c-8.9 8.9-8.9 23.3 0 32.2l47.1 47.1c7.7 7.7 7.7 20.1 0 27.8l-47.1 47.1c-8.9 8.9-8.9 23.3 0 32.2l47 47.1c7.7 7.7 7.7 20.1 0 27.8l-47 47.1c-8.9 8.9-8.9 23.3 0 32.2l61 61c3.9 3.9 10.2 3.9 14.1 0l28.8-28.8c18-18 5.4-48.7-20-49l-30-.3c-20.2-.2-30.1-24.6-15.9-38.9l37.1-37.1 28.8-28.8c18-18 5.4-48.7-20-49l-30.1-.3c-20.2-.2-30.1-24.6-15.9-38.9l37.1-37.1 28.8-28.8c17.9-18.1 5.4-48.8-20-49.1zM474.5 6.9zM488.6 232.2l-30.1-.3c-20.2-.2-30.1-24.6-15.9-38.9l37.1-37.1 28.8-28.8c18-18 5.4-48.7-20-49l-30.1-.3c-20.2-.2-30.1-24.6-15.9-38.9L471.3 10c1.7-1.7 1.6-4.5-.2-6.2l-1.1-1c-1.7-1.5-4.2-1.4-5.8.2l-59.5 59.5c-8.9 8.9-8.9 23.3 0 32.2l47.1 47.1c7.7 7.7 7.7 20.1 0 27.8l-47.1 47.1c-8.9 8.9-8.9 23.3 0 32.2l47 47.1c7.7 7.7 7.7 20.1 0 27.8l-47 47.1c-8.9 8.9-8.9 23.3 0 32.2l61 61c3.9 3.9 10.2 3.9 14.1 0l28.8-28.8c18-18 5.4-48.7-20-49l-30-.3c-20.2-.2-30.1-24.6-15.9-38.9l37.1-37.1 28.8-28.8c17.9-18 5.3-48.7-20-49z"/></symbol><symbol viewBox="0 0 211.6 392.2" id="material-icon-3"><path d="M0 0l54 187v205.2l103.2-93V187h.3l54-187H0zm143.3 215.5v56.1c0 13.5-5.7 26.4-15.7 35.4L85 345.4c-6.5 5.9-17 1.3-17-7.6V215.4c0-18.5-2.6-36.9-7.6-54.8l-35.9-126C21.6 24.3 29.3 14 40.1 14h131.3c10.8 0 18.6 10.3 15.6 20.7l-36 125.8c-5.1 17.9-7.7 36.4-7.7 55z"/><path d="M153.8 52.5h-96c-4.1 0-7.5-3.4-7.5-7.5s3.4-7.5 7.5-7.5h96c4.1 0 7.5 3.4 7.5 7.5s-3.3 7.5-7.5 7.5zM136.8 97.5h-62c-4.1 0-7.5-3.4-7.5-7.5s3.4-7.5 7.5-7.5h62c4.1 0 7.5 3.4 7.5 7.5s-3.3 7.5-7.5 7.5zM123.8 142.5h-36c-4.1 0-7.5-3.4-7.5-7.5s3.4-7.5 7.5-7.5h36c4.1 0 7.5 3.4 7.5 7.5s-3.3 7.5-7.5 7.5z"/></symbol><symbol viewBox="0 0 597.6 324" id="material-icon-4"><path d="M588.9 26.4L538.2 2.9 531.9 0l-6.3 2.9-50.8 23.5-1.2.6-1.2-.6-50.7-23.5-6.3-2.9-6.3 2.9-50.8 23.5-1.3.6-1.3-.6-50.6-23.5-6.3-2.9-6.3 2.9-50.8 23.5-1.1.5-1.1-.5-50.8-23.5-6.3-2.9-6.3 2.9-50.8 23.5-1.3.6-1.3-.6L72.1 2.9 65.8 0l-6.3 2.9L8.7 26.4l-8.7 4V324l21.3-9.9 44.4-20.6 44.4 20.6 6.4 3 7.4 3.4 7.4-3.4 6.4-3 44.4-20.6 44.4 20.6 6.2 2.9 7.6 3.5 7.6-3.5 6.2-2.9 44.4-20.6 44.4 20.6 6.4 3 7.4 3.4 7.4-3.4 6.4-3 44.4-20.6 58.2 27 58.2-27 44.4 20.6L597 324V30.4l-8.1-4zM116.5 300.5L65.8 277 15 300.5V40l50.8-23.5L116.5 40v260.5zm65.9-23.5l-50.8 23.5V40l50.8-23.5L233 40v260.4L182.4 277zm167.1 23.5L298.8 277l-50.6 23.4V40l50.6-23.4L349.5 40v260.5zm65.9-23.5l-50.8 23.5V40l50.8-23.5L466.1 40v260.5L415.4 277zm167.2 23.5L531.9 277l-50.8 23.5V40l50.8-23.5L582.6 40v260.5z"/></symbol><symbol viewBox="0 0 455.3 421.2" id="material-icon-5"><path d="M227.7 0L0 159v262.2h455.3V159L227.7 0zm207.6 401.2H20V169.4l207.7-145 207.7 145v231.8z"/><path d="M137.3 268c-5.9 49.8 29.8 95.2 79.6 101.1 3.6.4 7.2.6 10.8.6 46 0 84.9-34.5 90.3-80.3 5.9-49.8-29.8-95.2-79.6-101.1-3.6-.4-7.2-.6-10.8-.6-46 0-84.9 34.5-90.3 80.3zm99.4-65c41.8 5 71.7 43 66.7 84.7-4.6 38.4-37.1 67.3-75.7 67.3-3 0-6.1-.2-9.1-.5-41.8-5-71.7-43-66.7-84.7 4.6-38.4 37.1-67.3 75.7-67.3 3-.1 6.1.1 9.1.5z"/><path d="M176.3 309.6c1.2 2.1 3.4 3.3 5.8 3.3 1.6 0 3.2-.6 4.5-1.7 2.5-2.2 3-5.8 1.3-8.6-4.9-8.1-7.2-17.4-6.6-26.9 1.6-24.4 21.9-43.4 46.3-43.4 1.8 0 3.7.1 5.5.3 5 .6 9.9 2 14.5 4.2 1 .5 2 .7 3.1.7 1.7 0 3.3-.6 4.5-1.7 1.7-1.5 2.5-3.8 2.2-6-.3-2.2-1.7-4.2-3.8-5.2-7.5-3.6-15.6-5.6-24-5.9-29.7-1.1-54.8 18.9-60.8 47.7-2.9 14.9-.3 30.2 7.5 43.2zM241.1 323.4c-.6 0-1.2.1-1.7.2-6.4 1.7-13.2 2-19.8.8-3.8-.7-7.5-1.8-11-3.4-.9-.4-1.8-.6-2.8-.6-2.6 0-5 1.5-6.1 4-.8 1.6-.9 3.5-.2 5.2.6 1.7 1.9 3.1 3.6 3.8 5.6 2.5 11.5 4.2 17.6 4.9 2.3.3 4.7.4 7.1.4 5.1 0 10.3-.7 15.2-2 1.9-.5 3.6-1.9 4.4-3.7.8-1.8.8-3.9 0-5.8a7.09 7.09 0 0 0-6.3-3.8zM264.6 317.9c1.2.9 2.6 1.4 4.1 1.4 2 0 3.9-.9 5.2-2.4 7.4-8.9 12-19.6 13.3-31.1 1.5-12.7-1-25.3-7.3-36.4-1.2-2.1-3.5-3.5-5.9-3.5-1.1 0-2.3.3-3.3.9-1.6.9-2.8 2.3-3.3 4.1-.5 1.7-.3 3.6.6 5.2 4.8 8.6 6.8 18.3 5.6 28.1-1.1 8.9-4.6 17.2-10.3 24-1.2 1.4-1.7 3.2-1.5 5 .4 1.9 1.3 3.6 2.8 4.7zM98.8 335.2c4.3 0 7.8-3.5 7.8-7.8v-89.5c0-4.3-3.5-7.8-7.8-7.8s-7.8 3.5-7.8 7.8v89.5c0 4.3 3.5 7.8 7.8 7.8zM356.5 335.2c4.3 0 7.8-3.5 7.8-7.8v-89.5c0-4.3-3.5-7.8-7.8-7.8s-7.8 3.5-7.8 7.8v89.5c0 4.3 3.5 7.8 7.8 7.8z"/></symbol><symbol viewBox="0 0 8 8" id="menu-arrow"><path class="ost0" d="M8 .8L7.2 0 4 3.2.8 0 0 .8l4 4z"/><path class="ost0" d="M8 4l-.8-.8L4 6.4.8 3.2 0 4l4 4z"/></symbol><symbol id="search" viewBox="0 0 16 16"><style>.pst0{fill:#231f20}</style><path class="pst0" d="M16 14.9L9.8 8.7c.7-.9 1.1-2 1.1-3.3 0-3-2.4-5.5-5.5-5.5S0 2.4 0 5.4s2.4 5.5 5.5 5.5c1.2 0 2.4-.4 3.3-1.1L15 16l1-1.1zM1.5 5.4c0-2.2 1.8-3.9 3.9-3.9s3.9 1.8 3.9 3.9-1.7 4-3.9 4-3.9-1.8-3.9-4z"/></symbol><symbol id="tooltip-clock" viewBox="0 0 50 50"><style>.qst0{stroke:#000;stroke-width:2;stroke-miterlimit:10}</style><path class="qst0" d="M25 2.5c-12 0-21.7 9.7-21.7 21.7S13 45.8 25 45.8s21.7-9.7 21.7-21.7S37 2.5 25 2.5zm0 41.3C14.2 43.8 5.4 35 5.4 24.2S14.2 4.6 25 4.6s19.6 8.8 19.6 19.6S35.8 43.8 25 43.8z"/><path class="qst0" d="M26.5 12.8h-2v12.4h12.4v-2.1H26.5z"/></symbol></svg>