<svg width="22" height="24" viewBox="0 0 22 24" fill="none" xmlns="http://www.w3.org/2000/svg">
<path fill-rule="evenodd" clip-rule="evenodd" d="M8.25781 9.44994V8.51384C7.93293 8.46783 7.6053 8.44395 7.27718 8.44238C3.26454 8.44238 0 11.7075 0 15.7201C0 18.1816 1.23018 20.3605 3.10678 21.6781C1.85024 20.3343 1.15166 18.563 1.15267 16.7233C1.15267 12.7678 4.32432 9.54229 8.25781 9.44994Z" fill="#00F2EA"/>
<path fill-rule="evenodd" clip-rule="evenodd" d="M8.42932 20.0467C10.2196 20.0467 11.6801 18.6225 11.7466 16.8476L11.7527 1.00316H14.6473C14.5855 0.672341 14.5542 0.336543 14.5538 0H10.6005L10.594 15.845C10.528 17.6194 9.06695 19.043 7.2772 19.043C6.73986 19.0433 6.2106 18.9123 5.73535 18.6616C6.04222 19.0897 6.4466 19.4386 6.91506 19.6795C7.38351 19.9204 7.90257 20.0462 8.42932 20.0467ZM20.0545 6.38121V5.50063C18.9907 5.50161 17.9497 5.19214 17.0593 4.61015C17.84 5.50903 18.8911 6.13048 20.055 6.38121" fill="#00F2EA"/>
<path fill-rule="evenodd" clip-rule="evenodd" d="M17.0595 4.60967C16.1869 3.61116 15.7062 2.32989 15.7068 1.00378H14.6475C14.7847 1.73675 15.0692 2.43426 15.4838 3.05407C15.8983 3.67388 16.4344 4.20309 17.0595 4.60967ZM7.27745 12.3964C6.39636 12.3974 5.55164 12.7479 4.92861 13.3709C4.30558 13.9939 3.95512 14.8387 3.9541 15.7198C3.95469 16.3259 4.1209 16.9203 4.43479 17.4388C4.74868 17.9573 5.1983 18.3801 5.73506 18.6616C5.32636 18.098 5.10627 17.4197 5.10623 16.7235C5.1071 15.8423 5.4575 14.9974 6.08054 14.3743C6.70359 13.7511 7.54839 13.4006 8.42958 13.3996C8.77203 13.3996 9.10019 13.4562 9.4102 13.5535V9.51719C9.08533 9.47118 8.75769 9.4473 8.42958 9.44574C8.37186 9.44574 8.31525 9.44903 8.25808 9.45013V12.5503C7.94095 12.4494 7.61026 12.3975 7.27745 12.3964Z" fill="#FF004F"/>
<path fill-rule="evenodd" clip-rule="evenodd" d="M20.0546 6.38129V9.45399C18.0043 9.45399 16.1052 8.79822 14.554 7.68512V15.7198C14.554 19.7324 11.29 22.9969 7.27734 22.9969C5.7267 22.9969 4.28874 22.5077 3.10693 21.6777C3.78639 22.4104 4.60986 22.9949 5.52575 23.3946C6.44163 23.7942 7.43019 24.0004 8.42946 24.0001C12.4421 24.0001 15.7066 20.7356 15.7066 16.7235V8.68883C17.3091 9.84113 19.2335 10.46 21.2073 10.4577V6.50332C20.8115 6.50332 20.4267 6.46044 20.0546 6.38074" fill="#FF004F"/>
<path fill-rule="evenodd" clip-rule="evenodd" d="M14.5537 15.7198V7.68512C16.1561 8.83755 18.0806 9.45641 20.0544 9.45398V6.38128C18.8906 6.13029 17.8396 5.50866 17.0592 4.60967C16.4341 4.20309 15.898 3.67388 15.4834 3.05407C15.0688 2.43426 14.7843 1.73675 14.6472 1.00378H11.7526L11.7465 16.8482C11.68 18.6226 10.2195 20.0468 8.42922 20.0468C7.90248 20.0463 7.38343 19.9204 6.91499 19.6795C6.44654 19.4386 6.04215 19.0897 5.73525 18.6616C5.19839 18.3802 4.74866 17.9574 4.43467 17.4389C4.12068 16.9204 3.95438 16.3259 3.95375 15.7198C3.95476 14.8387 4.30523 13.9939 4.92826 13.3709C5.55129 12.7479 6.396 12.3974 7.2771 12.3964C7.619 12.3964 7.94715 12.4525 8.25772 12.5503V9.45013C4.32423 9.54248 1.15259 12.768 1.15259 16.7235C1.15259 18.6363 1.89575 20.3777 3.10669 21.6783C4.32745 22.5376 5.78419 22.9983 7.2771 22.9969C11.2897 22.9969 14.5537 19.7324 14.5537 15.7198Z" fill="black"/>
</svg>
