<svg width="25" height="29" viewBox="0 0 25 29" fill="none" xmlns="http://www.w3.org/2000/svg">
<path fill-rule="evenodd" clip-rule="evenodd" d="M9.73464 11.1399V10.0364C9.35166 9.98214 8.96544 9.954 8.57864 9.95215C3.84837 9.95215 0 13.8012 0 18.5314C0 21.4331 1.45019 24.0017 3.6624 25.5549C2.18113 23.9708 1.35763 21.8828 1.35882 19.714C1.35882 15.0511 5.09768 11.2488 9.73464 11.1399Z" fill="#00F2EA"/>
<path fill-rule="evenodd" clip-rule="evenodd" d="M9.9365 23.6319C12.047 23.6319 13.7687 21.953 13.8471 19.8607L13.8542 1.18257H17.2665C17.1936 0.792583 17.1568 0.396731 17.1563 0H12.496L12.4883 18.6787C12.4105 20.7704 10.6882 22.4487 8.57833 22.4487C7.9449 22.449 7.32098 22.2946 6.76074 21.999C7.12249 22.5037 7.5992 22.915 8.15143 23.199C8.70366 23.4829 9.31555 23.6313 9.9365 23.6319ZM23.6407 7.52243V6.48436C22.3867 6.48553 21.1595 6.1207 20.1098 5.43463C21.0301 6.49427 22.2693 7.22686 23.6413 7.52243" fill="#00F2EA"/>
<path fill-rule="evenodd" clip-rule="evenodd" d="M20.1103 5.43399C19.0816 4.25691 18.515 2.7465 18.5156 1.18323H17.267C17.4287 2.04728 17.764 2.86953 18.2528 3.60019C18.7415 4.33084 19.3734 4.95471 20.1103 5.43399ZM8.57884 14.6133C7.54016 14.6145 6.54438 15.0277 5.80993 15.7621C5.07548 16.4966 4.66233 17.4923 4.66113 18.531C4.66182 19.2455 4.85777 19.9462 5.22779 20.5575C5.59781 21.1687 6.12784 21.6672 6.7606 21.999C6.27881 21.3346 6.01935 20.5349 6.0193 19.7142C6.02033 18.6754 6.4334 17.6795 7.16787 16.9449C7.90234 16.2103 8.89822 15.7971 9.93701 15.7959C10.3407 15.7959 10.7275 15.8626 11.093 15.9773V11.2192C10.71 11.1649 10.3238 11.1368 9.93701 11.1349C9.86897 11.1349 9.80223 11.1388 9.73484 11.1401V14.7947C9.36099 14.6757 8.97116 14.6146 8.57884 14.6133Z" fill="#FF004F"/>
<path fill-rule="evenodd" clip-rule="evenodd" d="M23.6412 7.5225V11.1447C21.2242 11.1447 18.9854 10.3717 17.1568 9.05951V18.5311C17.1568 23.2613 13.3091 27.1097 8.57884 27.1097C6.75088 27.1097 5.05576 26.533 3.6626 25.5546C4.46357 26.4183 5.43431 27.1074 6.51399 27.5785C7.59368 28.0496 8.75903 28.2926 9.93701 28.2923C14.6673 28.2923 18.5157 24.4439 18.5157 19.7143V10.2427C20.4047 11.6011 22.6733 12.3306 25 12.3279V7.66635C24.5335 7.66635 24.0799 7.61581 23.6412 7.52185" fill="#FF004F"/>
<path fill-rule="evenodd" clip-rule="evenodd" d="M17.1562 18.531V9.05946C19.0452 10.418 21.3138 11.1475 23.6406 11.1447V7.52244C22.2687 7.22656 21.0298 6.49376 20.1097 5.43399C19.3728 4.95471 18.7409 4.33084 18.2521 3.60019C17.7634 2.86953 17.428 2.04728 17.2664 1.18323H13.8541L13.847 19.8613C13.7686 21.953 12.0469 23.6319 9.93639 23.6319C9.31545 23.6313 8.70357 23.4829 8.15135 23.1989C7.59913 22.915 7.12242 22.5037 6.76063 21.999C6.12775 21.6673 5.59759 21.1688 5.22745 20.5576C4.85731 19.9464 4.66127 19.2456 4.66052 18.531C4.66172 17.4923 5.07486 16.4966 5.80931 15.7621C6.54376 15.0277 7.53955 14.6145 8.57822 14.6133C8.98127 14.6133 9.36811 14.6794 9.73422 14.7948V11.1401C5.09726 11.249 1.3584 15.0514 1.3584 19.7142C1.3584 21.9692 2.23447 24.022 3.66198 25.5551C5.10105 26.5682 6.81832 27.1112 8.57822 27.1097C13.3085 27.1097 17.1562 23.2613 17.1562 18.531Z" fill="white"/>
</svg>
