<svg width="11" height="11" viewBox="0 0 11 11" fill="none" xmlns="http://www.w3.org/2000/svg">
<path d="M10.7207 0.493987C10.525 0.412968 10.3579 0.446279 10.2194 0.594294L9.28842 1.51821C8.77758 1.03598 8.19395 0.66242 7.53747 0.397442C6.881 0.132489 6.20182 0 5.5 0C4.75523 0 4.04387 0.145683 3.36593 0.436873C2.68793 0.728088 2.10307 1.11951 1.61134 1.61126C1.11958 2.10307 0.728062 2.68786 0.436847 3.3658C0.145658 4.0438 0 4.75506 0 5.49992C0 6.24457 0.145658 6.956 0.436872 7.63397C0.728163 8.31199 1.11958 8.89683 1.61136 9.38859C2.10309 9.88019 2.68796 10.2717 3.36595 10.5629C4.0439 10.8542 4.75526 10.9998 5.50002 10.9998C6.32114 10.9998 7.10196 10.8268 7.84186 10.4806C8.58181 10.1346 9.21202 9.64636 9.73255 9.01613C9.77067 8.96839 9.78858 8.91466 9.78612 8.85499C9.78389 8.79534 9.76107 8.74641 9.71812 8.70821L8.73717 7.71996C8.68447 7.67704 8.62498 7.65559 8.55811 7.65559C8.48173 7.66512 8.42687 7.69387 8.39341 7.7416C8.04488 8.19526 7.61759 8.54607 7.11149 8.79452C6.60549 9.04269 6.06838 9.16673 5.50022 9.16673C5.00378 9.16673 4.52991 9.07006 4.07874 8.87666C3.62752 8.68337 3.23718 8.42198 2.90781 8.09254C2.57847 7.76307 2.31708 7.37288 2.12369 6.92161C1.93035 6.47044 1.83365 5.9967 1.83365 5.50013C1.83365 5.0036 1.93042 4.52963 2.12369 4.07856C2.317 3.62744 2.57837 3.2371 2.90781 2.90774C3.23728 2.57829 3.62752 2.3169 4.07874 2.12351C4.52981 1.9302 5.00378 1.83348 5.50022 1.83348C6.45988 1.83348 7.29304 2.16053 7.99965 2.81463L7.01115 3.80275C6.86309 3.946 6.82978 4.11075 6.9108 4.29691C6.99209 4.4879 7.13293 4.58336 7.33355 4.58336H10.5418C10.666 4.58336 10.7733 4.53804 10.8641 4.44731C10.9547 4.35661 11 4.24921 11 4.12507V0.916713C11 0.716248 10.9071 0.575407 10.7207 0.493987Z" fill="#2CB0E8"/>
</svg>
