<svg xmlns="http://www.w3.org/2000/svg" width="17.969" height="10" viewBox="0 0 17.969 10">
	<style>
		   .cls-1{ fill: #9199aa; }
	</style>
                <path id="m_vk.svg" class="cls-1" d="M491.47,131.362a23.964,23.964,0,0,1,1.761,1.745,5.069,5.069,0,0,1,.632.894,0.64,0.64,0,0,1-.4,1l-2.619,0a2.039,2.039,0,0,1-1.668-.668c-0.362-.362-0.7-0.75-1.047-1.126a2.47,2.47,0,0,0-.471-0.412,0.551,0.551,0,0,0-.872.208,2.691,2.691,0,0,0-.277,1.2,0.688,0.688,0,0,1-.833.794,6.769,6.769,0,0,1-3.748-.794,8.205,8.205,0,0,1-2.521-2.324,31.125,31.125,0,0,1-3.319-5.823c-0.21-.459-0.056-0.705.459-0.715q1.281-.024,2.563,0a0.75,0.75,0,0,1,.711.525,15.6,15.6,0,0,0,1.738,3.169,2.713,2.713,0,0,0,.657.711,0.4,0.4,0,0,0,.678-0.2,2.171,2.171,0,0,0,.15-0.665,9.766,9.766,0,0,0-.041-2.33,0.979,0.979,0,0,0-.841-0.889c-0.251-.047-0.214-0.139-0.092-0.279a0.944,0.944,0,0,1,.8-0.393h2.96a0.7,0.7,0,0,1,.633.757l0,3.236a0.941,0.941,0,0,0,.417.828,0.585,0.585,0,0,0,.592-0.285,10.088,10.088,0,0,0,1.667-2.522c0.2-.4.372-0.812,0.539-1.225a0.632,0.632,0,0,1,.669-0.451l2.849,0a1.618,1.618,0,0,1,.252.014,0.488,0.488,0,0,1,.463.747,6.978,6.978,0,0,1-1.133,1.934c-0.474.646-.983,1.271-1.454,1.922a0.87,0.87,0,0,0,.139,1.41h0Zm0,0" transform="translate(-476 -125)"></path>
              </svg>