<svg width="29" height="16" viewBox="0 0 29 16" fill="none" xmlns="http://www.w3.org/2000/svg">
<path d="M28.7415 14.271C28.6636 14.1448 28.1814 13.1317 25.8612 11.0494C23.4323 8.86903 23.7586 9.22309 26.6842 5.45294C28.466 3.15684 29.1784 1.75465 28.9554 1.15521C28.7433 0.583812 27.4328 0.734548 27.4328 0.734548L23.0752 0.759087C23.0752 0.759087 22.7526 0.717021 22.5115 0.855488C22.2777 0.992202 22.1272 1.3077 22.1272 1.3077C22.1272 1.3077 21.4366 3.08498 20.5158 4.59584C18.5745 7.78409 17.7968 7.95235 17.4796 7.75429C16.7419 7.29332 16.9268 5.89989 16.9268 4.91134C16.9268 1.82125 17.4107 0.532983 15.9824 0.199961C15.5075 0.0895384 15.1595 0.0159232 13.9468 0.00365397C12.3916 -0.0121207 11.0738 0.00891219 10.3288 0.361214C9.83213 0.596082 9.44966 1.12015 9.68349 1.14995C9.9717 1.18676 10.6242 1.31997 10.9705 1.77568C11.4182 2.36285 11.4019 3.68442 11.4019 3.68442C11.4019 3.68442 11.6593 7.32136 10.8019 7.77357C10.2128 8.08381 9.40616 7.45106 7.67509 4.55728C6.78872 3.07621 6.11804 1.4374 6.11804 1.4374C6.11804 1.4374 5.98934 1.13242 5.75914 0.969416C5.47999 0.771356 5.08847 0.708257 5.08847 0.708257L0.944787 0.732796C0.944787 0.732796 0.323053 0.750324 0.0946616 1.01148C-0.108353 1.2446 0.0783479 1.72485 0.0783479 1.72485C0.0783479 1.72485 3.32296 9.06359 6.99536 12.7636C10.365 16.1552 14.1897 15.9326 14.1897 15.9326H15.9226C15.9226 15.9326 16.4464 15.8765 16.7129 15.5978C16.9594 15.3419 16.9503 14.8617 16.9503 14.8617C16.9503 14.8617 16.9159 12.6129 17.9962 12.2816C19.0602 11.9556 20.427 14.455 21.8753 15.4173C22.9701 16.1447 23.8021 15.9852 23.8021 15.9852L27.6757 15.9326C27.6757 15.9326 29.7022 15.8117 28.7415 14.271Z" fill="white"/>
</svg>
