<svg width="30" height="20" viewBox="0 0 30 20" fill="none" xmlns="http://www.w3.org/2000/svg">
<path d="M29.3819 3.12952C29.0362 1.90578 28.0229 0.941123 26.7378 0.611608C24.3902 0 14.9997 0 14.9997 0C14.9997 0 5.60945 0 3.26185 0.58842C2.00153 0.917586 0.963503 1.90596 0.617799 3.12952C0 5.36465 0 10 0 10C0 10 0 14.6587 0.617799 16.8705C0.963869 18.094 1.97681 19.0587 3.26203 19.3882C5.63417 20 15 20 15 20C15 20 24.3902 20 26.7378 19.4116C28.0231 19.0822 29.0362 18.1176 29.3823 16.894C29.9999 14.6587 29.9999 10.0235 29.9999 10.0235C29.9999 10.0235 30.0246 5.36465 29.3819 3.12952ZM12.0099 14.2823V5.7177L19.8186 10L12.0099 14.2823Z" fill="white"/>
</svg>
