<svg version="1.1" id="Layer_1" xmlns="http://www.w3.org/2000/svg" xmlns:xlink="http://www.w3.org/1999/xlink" x="0px" y="0px"
	 viewBox="0 0 1274.8 70" style="enable-background:new 0 0 1274.8 70;" xml:space="preserve">
<style type="text/css">
	.st0{fill:none;}
</style>
<g>
	<g>
		<path d="M0,70V0h20.5l16.7,27.1L53.9,0h20.6v70H55.1V29.9L37.2,57.3h-0.4L19,30.1v40H0z"/>
		<path d="M124.4,70V0h56.3v16.5h-37.1v10.6h33.6v15.3h-33.6v11.1h37.6V70H124.4z"/>
		<path d="M223.1,17.1V0h61.4v17h-21v53h-19.4v-53H223.1z"/>
		<g>
			<polyline class="st0" points="360.6,42.5 352.8,22.5 334,22.5 			"/>
		</g>
		<path d="M434.6,70V0H454v53h33.9v17H434.6z"/>
		<path d="M531.1,70V0h19.4v53h33.9v17H531.1z"/>
		<path d="M626.7,70V55.9l35.1-39.3h-33.9V0h60.7v14.2l-35.1,39.3h35.1V70H626.7z"/>
		<path d="M838,0h21.7l15.9,44.3L891.5,0h21.3l-28.4,70h-18L838,0z"/>
		<g>
			<polyline class="st0" points="776.9,42.5 769.1,22.5 750.4,22.5 			"/>
		</g>
	</g>
	<g>
		<path d="M1184.8,57.2V53h14.9v4.1h-5.1V70h-4.7V57.2H1184.8z"/>
		<path d="M1209.8,70V53h13.6v4h-9v2.6h8.1v3.7h-8.1V66h9.1v4H1209.8z"/>
		<path d="M1233.7,61.5c0-1.2,0.2-2.3,0.7-3.3s1-1.9,1.8-2.7c0.8-0.8,1.7-1.4,2.7-1.8c1.1-0.4,2.2-0.7,3.4-0.7
			c2.9,0,5.2,1.1,6.8,3.4l-3.3,2.6c-1-1.3-2.2-1.9-3.6-1.9c-1.1,0-2.1,0.4-2.8,1.3c-0.7,0.8-1.1,1.9-1.1,3.1c0,1.3,0.4,2.3,1.1,3.1
			c0.7,0.8,1.7,1.3,2.8,1.3c0.8,0,1.5-0.2,2-0.5c0.6-0.3,1.1-0.8,1.7-1.5l3.4,2.4c-0.6,0.7-1.1,1.4-1.8,1.9
			c-0.6,0.5-1.4,0.9-2.3,1.3c-0.9,0.3-2,0.5-3.1,0.5c-1.5,0-2.9-0.4-4.2-1.1c-1.3-0.7-2.3-1.7-3-3
			C1234,64.6,1233.7,63.2,1233.7,61.5z"/>
		<path d="M1259.4,70V53h4.7v6.4h6V53h4.7v17h-4.7v-6.5h-6V70H1259.4z"/>
	</g>
	<rect x="1184.8" y="0" width="90" height="17"/>
	<polygon points="362.3,0 343.6,0 360.6,42.5 335.3,19.4 313.8,70 334.2,70 339.1,57.5 366.2,57.5 371.3,70 392.1,70 	"/>
	<polygon points="778.6,0 759.9,0 776.9,42.5 751.7,19.4 730.1,70 750.5,70 755.5,57.5 782.5,57.5 787.6,70 808.4,70 	"/>
	<path d="M950.5,35.1c0-4.8,0.9-9.3,2.8-13.6c1.9-4.3,4.4-8,7.6-11.1c3.2-3.1,7-5.6,11.5-7.5s9.3-2.8,14.4-2.8
		c5.1,0,9.9,0.9,14.3,2.7s8.3,4.3,11.4,7.4c3.2,3.1,5.7,6.8,7.5,11.1c1.8,4.3,2.7,8.9,2.7,13.7c0,4.7-0.9,9.3-2.8,13.6
		c-1.9,4.3-4.4,8-7.6,11.2c-3.2,3.1-7,5.6-11.5,7.4c-4.5,1.8-9.3,2.8-14.4,2.8c-6.8,0-12.9-1.6-18.5-4.7c-5.5-3.1-9.9-7.3-13-12.7
		C952.1,47.4,950.5,41.5,950.5,35.1z M969.6,35.1c0,5,1.6,9.2,4.9,12.8c3.2,3.6,7.4,5.4,12.3,5.4c5,0,9.1-1.8,12.3-5.3
		c3.2-3.5,4.8-7.8,4.8-12.9c0-5-1.6-9.2-4.9-12.8c-3.3-3.6-7.4-5.4-12.4-5.4c-5,0-9,1.8-12.2,5.3C971.2,25.7,969.6,30,969.6,35.1z"
		/>
	<path d="M1070.9,70V0h27c6.1,0,11.7,0.9,16.7,2.6c5,1.7,9.1,4.1,12.4,7.2c3.3,3.1,5.9,6.8,7.7,11c1.8,4.3,2.7,9,2.7,14.1
		c0,5-0.9,9.7-2.7,14c-1.8,4.3-4.4,8-7.7,11.1c-3.4,3.1-7.5,5.6-12.6,7.4c-5,1.8-10.7,2.7-16.8,2.7H1070.9z M1090.3,53h7.9
		c5.9,0,10.6-1.6,14.1-4.7c3.5-3.2,5.2-7.6,5.2-13.3c0-5.6-1.8-9.9-5.2-13.1c-3.5-3.2-8.2-4.8-14-4.8h-7.9V53z"/>
</g>
</svg>
