<svg width="129" height="22" viewBox="0 0 129 22" fill="none" xmlns="http://www.w3.org/2000/svg">
<path d="M6.75 17.4371C3.028 17.4371 0 14.4763 0 10.8371C0 7.19777 3.028 4.23706 6.75 4.23706C10.472 4.23706 13.5 7.19777 13.5 10.8371C13.5 14.4763 10.472 17.4371 6.75 17.4371ZM6.75 7.17039C4.68217 7.17039 3 8.81518 3 10.8371C3 12.8589 4.68217 14.5037 6.75 14.5037C8.81783 14.5037 10.5 12.8589 10.5 10.8371C10.5 8.81518 8.81783 7.17039 6.75 7.17039Z" fill="black"/>
<path d="M12 22.0001C11.1715 22.0001 10.5 21.3435 10.5 20.5334V10.9186C10.5 10.1085 11.1715 9.4519 12 9.4519C12.8285 9.4519 13.5 10.1085 13.5 10.9186V20.5334C13.5 21.3435 12.8285 22.0001 12 22.0001Z" fill="black"/>
<path d="M52.25 17.4371C48.528 17.4371 45.5 14.4763 45.5 10.8371C45.5 7.19777 48.528 4.23706 52.25 4.23706C55.972 4.23706 59 7.19777 59 10.8371C59 14.4763 55.972 17.4371 52.25 17.4371ZM52.25 7.17039C50.1822 7.17039 48.5 8.81518 48.5 10.8371C48.5 12.8589 50.1822 14.5037 52.25 14.5037C54.3178 14.5037 56 12.8589 56 10.8371C56 8.81518 54.3178 7.17039 52.25 7.17039Z" fill="black"/>
<path d="M47 22.0001C46.1715 22.0001 45.5 21.3435 45.5 20.5334V10.9186C45.5 10.1085 46.1715 9.4519 47 9.4519C47.8285 9.4519 48.5 10.1085 48.5 10.9186V20.5334C48.5 21.3435 47.8285 22.0001 47 22.0001Z" fill="black"/>
<path d="M21.917 17.4371C18.195 17.4371 15.167 14.4763 15.167 10.8371C15.167 7.19777 18.195 4.23706 21.917 4.23706C25.639 4.23706 28.667 7.19777 28.667 10.8371C28.667 14.4763 25.639 17.4371 21.917 17.4371ZM21.917 7.17039C19.8492 7.17039 18.167 8.81518 18.167 10.8371C18.167 12.8589 19.8492 14.5037 21.917 14.5037C23.9848 14.5037 25.667 12.8589 25.667 10.8371C25.667 8.81518 23.9848 7.17039 21.917 7.17039Z" fill="black"/>
<path d="M37.0835 17.4371C33.3615 17.4371 30.3335 14.4763 30.3335 10.8371C30.3335 7.19777 33.3615 4.23706 37.0835 4.23706C40.8055 4.23706 43.8335 7.19777 43.8335 10.8371C43.8335 14.4763 40.8055 17.4371 37.0835 17.4371ZM37.0835 7.17039C35.0157 7.17039 33.3335 8.81518 33.3335 10.8371C33.3335 12.8589 35.0157 14.5037 37.0835 14.5037C39.1513 14.5037 40.8335 12.8589 40.8335 10.8371C40.8335 8.81518 39.1513 7.17039 37.0835 7.17039Z" fill="black"/>
<path d="M62.1665 17.2741C61.338 17.2741 60.6665 16.6175 60.6665 15.8074V5.70373C60.6665 4.89364 61.338 4.23706 62.1665 4.23706C62.995 4.23706 63.6665 4.89364 63.6665 5.70373V15.8074C63.6665 16.6175 62.995 17.2741 62.1665 17.2741Z" fill="black"/>
<path d="M62.1665 2.93333C61.338 2.93333 60.6665 2.27676 60.6665 1.46667C60.6665 0.656578 61.338 0 62.1665 0C62.995 0 63.6665 0.656578 63.6665 1.46667C63.6665 2.27676 62.995 2.93333 62.1665 2.93333Z" fill="black"/>
<path d="M72.0835 17.4371C68.3615 17.4371 65.3335 14.4763 65.3335 10.8371C65.3335 7.19777 68.3615 4.23706 72.0835 4.23706C75.8055 4.23706 78.8335 7.19777 78.8335 10.8371C78.8335 14.4763 75.8055 17.4371 72.0835 17.4371ZM72.0835 7.17039C70.0158 7.17039 68.3335 8.81518 68.3335 10.8371C68.3335 12.8589 70.0158 14.5037 72.0835 14.5037C74.1512 14.5037 75.8335 12.8589 75.8335 10.8371C75.8335 8.81518 74.1512 7.17039 72.0835 7.17039Z" fill="black"/>
<path d="M77.3335 22.0001C76.505 22.0001 75.8335 21.3435 75.8335 20.5334V10.9186C75.8335 10.1085 76.505 9.4519 77.3335 9.4519C78.162 9.4519 78.8335 10.1085 78.8335 10.9186V20.5334C78.8335 21.3435 78.162 22.0001 77.3335 22.0001Z" fill="black"/>
<path d="M117.583 17.4371C113.861 17.4371 110.833 14.4763 110.833 10.8371C110.833 7.19777 113.861 4.23706 117.583 4.23706C121.305 4.23706 124.333 7.19777 124.333 10.8371C124.333 14.4763 121.305 17.4371 117.583 17.4371ZM117.583 7.17039C115.516 7.17039 113.833 8.81518 113.833 10.8371C113.833 12.8589 115.516 14.5037 117.583 14.5037C119.651 14.5037 121.333 12.8589 121.333 10.8371C121.333 8.81518 119.651 7.17039 117.583 7.17039Z" fill="black"/>
<path d="M112.333 22.0001C111.505 22.0001 110.833 21.3435 110.833 20.5334V10.9186C110.833 10.1085 111.505 9.4519 112.333 9.4519C113.162 9.4519 113.833 10.1085 113.833 10.9186V20.5334C113.833 21.3435 113.162 22.0001 112.333 22.0001Z" fill="black"/>
<path d="M87.2505 17.4371C83.5285 17.4371 80.5005 14.4763 80.5005 10.8371C80.5005 7.19777 83.5285 4.23706 87.2505 4.23706C90.9725 4.23706 94.0005 7.19777 94.0005 10.8371C94.0005 14.4763 90.9725 17.4371 87.2505 17.4371ZM87.2505 7.17039C85.1828 7.17039 83.5005 8.81518 83.5005 10.8371C83.5005 12.8589 85.1828 14.5037 87.2505 14.5037C89.3182 14.5037 91.0005 12.8589 91.0005 10.8371C91.0005 8.81518 89.3182 7.17039 87.2505 7.17039Z" fill="black"/>
<path d="M102.417 17.4371C98.695 17.4371 95.667 14.4763 95.667 10.8371C95.667 7.19777 98.695 4.23706 102.417 4.23706C106.139 4.23706 109.167 7.19777 109.167 10.8371C109.167 14.4763 106.139 17.4371 102.417 17.4371ZM102.417 7.17039C100.349 7.17039 98.667 8.81518 98.667 10.8371C98.667 12.8589 100.349 14.5037 102.417 14.5037C104.485 14.5037 106.167 12.8589 106.167 10.8371C106.167 8.81518 104.485 7.17039 102.417 7.17039Z" fill="black"/>
<path d="M127.5 17.2741C126.671 17.2741 126 16.6175 126 15.8074V5.70373C126 4.89364 126.671 4.23706 127.5 4.23706C128.329 4.23706 129 4.89364 129 5.70373V15.8074C129 16.6175 128.329 17.2741 127.5 17.2741Z" fill="black"/>
<path d="M127.5 2.93333C126.671 2.93333 126 2.27676 126 1.46667C126 0.656578 126.671 0 127.5 0C128.329 0 129 0.656578 129 1.46667C129 2.27676 128.329 2.93333 127.5 2.93333Z" fill="black"/>
</svg>
